<?xml version="1.0" encoding="utf-8"?>
<!-- Generator: Adobe Illustrator 19.2.1, SVG Export Plug-In . SVG Version: 6.00 Build 0)  -->
<svg version="1.1" id="Layer_2" xmlns="http://www.w3.org/2000/svg" xmlns:xlink="http://www.w3.org/1999/xlink" x="0px" y="0px"
	 width="478px" height="103.6px" viewBox="0 0 478 103.6" style="enable-background:new 0 0 478 103.6;" xml:space="preserve">
<style type="text/css">
	.st0{fill:#3C5CA9;}
	.st1{fill:#404041;}
	 #small{
    display:none;
    }
    @media screen and (max-width: 200px){
    #big{
    display:none;
    }
    #small{
    display:block;
    }
    }
</style>
<path id="symbol" class="st0" d="M97.2,49.5L79,72.5l-0.7,0.9l-1-0.1l-36.8-2.5L11.9,88.9c2.7,2.9,6.5,4.5,10.9,4.7
	c0,0,8.2,1.2,28.5,1.2c20.4,0,28.6-1.2,28.6-1.2c8.7-0.4,14.8-6.4,15.7-16.6C95.7,77,97.1,64.9,97.2,49.5z M97,36.7L58.9,61.9
	L58,62.5l-1-0.4l-31-13L6.2,67.4C6.6,73.2,7.1,77,7.1,77c0.3,3.3,1.1,6.2,2.4,8.6L38.9,67l0.6-0.3h0.7L76.5,69l20.6-26
	C97.1,40.8,97.1,38.7,97,36.7z M93.7,11.8L61.3,39.7L59.8,41l-1.3-1.4L38.9,19.9L5.7,53.1C5.8,56.3,5.8,59.3,6,62l18.3-16.9l1-0.9
	l1.2,0.5l31.1,13.2L96.7,32c-0.4-7.2-0.9-12.4-0.9-12.4C95.5,16.6,94.8,14,93.7,11.8z M51.4,1.8C31,1.8,22.8,3,22.8,3
	C14.1,3.4,8,9.4,7.1,19.6c0,0-1.4,12.9-1.5,27.8l31.8-31.9l1.5-1.5l1.5,1.5l19.7,19.8l31.3-27C88.6,5.1,84.7,3.2,80,3
	C80,3,71.7,1.8,51.4,1.8z"/>
<g id="big">
	<path class="st1" d="M117.1,38.1v-32h25v32.1h-6.8V12.6h-11.4v25.6h-6.8V38.1z M183,31.8c2.8,0.1,4.7-1.1,5.4-3.7
		c1.8-6.9,2.1-14.8,3-22h20.7v32.1h-6.8V12.6h-7.8c-0.4,4.5-1.2,12.3-2.5,17.2c-1.5,5.5-6,8.9-12,8.7L183,31.8L183,31.8z M228,38.1
		h-6.5v-32h6.8v19.8L241,6.1h6.5v32.1h-6.8V18.4L228,38.1z M263.4,38.1V12.6h-8.8V6.1h24.5v6.5h-8.8v25.6h-6.9V38.1z M292.4,18.8
		h12.7V25h-12.7v6.7h14.9v6.5h-21.7V6.1h21.7v6.5h-14.9V18.8z M322,6.1l6,10l6-10h8.1l-9.8,15.4l10.6,16.7h-8.1L328,26.9l-6.8,11.3
		h-8.1l10.6-16.7L314,6.1C314,6.1,322,6.1,322,6.1z M156.6,22.1c0,5.3,1.1,10.4,7.8,10.4s7.8-5,7.8-10.4c0-5.3-1.1-10.3-7.8-10.3
		C157.7,11.8,156.6,16.8,156.6,22.1z M149.8,22.1c0-9,3.8-16.8,14.7-16.8s14.6,7.7,14.6,16.8s-3.7,16.8-14.6,16.8
		C153.5,38.9,149.8,31.2,149.8,22.1z"/>
	<g>
		<path class="st1" d="M126,49.2l0.1-1.7H126l-0.9,1.7l-7,9.7h-1V44.5h1.7v9.9l-0.1,1.6h0.1l0.9-1.7l7-9.8h1v14.4H126V49.2z"/>
		<path class="st1" d="M137.3,54.4h-4.7V59H131V48.6h1.7v4.3h4.7v-4.3h1.7v10.3h-1.7L137.3,54.4L137.3,54.4z"/>
		<path class="st1" d="M149.2,58.3c-0.4,0.3-0.9,0.5-1.5,0.7s-1.2,0.2-1.8,0.2c-0.8,0-1.5-0.1-2-0.4c-0.6-0.3-1-0.6-1.4-1.1
			s-0.6-1-0.8-1.7s-0.2-1.4-0.2-2.2c0-1.7,0.4-3.1,1.2-4s1.9-1.4,3.3-1.4c0.7,0,1.2,0.1,1.7,0.2c0.5,0.1,0.9,0.3,1.2,0.4l-0.5,1.4
			c-0.3-0.2-0.7-0.3-1.1-0.4c-0.4-0.1-0.8-0.2-1.2-0.2c-2,0-2.9,1.3-2.9,4c0,0.5,0.1,1,0.2,1.5c0.1,0.5,0.3,0.9,0.5,1.3
			c0.2,0.4,0.6,0.7,0.9,0.9c0.4,0.2,0.9,0.3,1.5,0.3c0.5,0,0.9-0.1,1.3-0.2c0.4-0.2,0.7-0.3,1-0.5L149.2,58.3z"/>
		<path class="st1" d="M157.7,50.1h-3.2V59h-1.7v-8.9h-3.2v-1.4h8.1L157.7,50.1L157.7,50.1z"/>
		<path class="st1" d="M165.8,52.8l0.1-1.3h-0.1l-0.8,1.3l-4.6,6.1h-0.9V48.6h1.7v6.3l-0.1,1.2h0.1l0.8-1.3l4.6-6.2h1v10.3h-1.7
			v-6.1H165.8z"/>
		<path class="st1" d="M177.2,50.1H174V59h-1.7v-8.9h-3.2v-1.4h8.1L177.2,50.1L177.2,50.1z"/>
		<path class="st1" d="M181.9,55.3l0.6,2h0.1l0.5-2l2-6.7h1.7l-3.1,9.3c-0.2,0.7-0.5,1.3-0.7,2c-0.2,0.6-0.5,1.2-0.8,1.7
			s-0.6,0.9-0.9,1.2c-0.3,0.3-0.7,0.4-1.2,0.4s-0.9-0.1-1.2-0.2l0.3-1.4c0.2,0.1,0.4,0.1,0.5,0.1c0.4,0,0.8-0.2,1.1-0.6
			c0.4-0.4,0.7-1.1,0.9-2.1l-4.1-10.3h1.9L181.9,55.3z"/>
		<path class="st1" d="M195,50.1h-3.2V59h-1.7v-8.9h-3.2v-1.4h8.1L195,50.1L195,50.1z"/>
		<path class="st1" d="M207.7,50.1h-4.6V59h-1.7V48.6h7.9v10.3h-1.7v-8.8H207.7z"/>
		<path class="st1" d="M212.6,48.6h1.1l0.3,1.2h0.1c0.3-0.5,0.7-0.8,1.2-1.1s1.1-0.4,1.7-0.4c1.4,0,2.4,0.4,3.1,1.2
			c0.7,0.8,1,2.1,1,4c0,0.9-0.1,1.6-0.3,2.3s-0.5,1.3-1,1.8c-0.4,0.5-0.9,0.9-1.5,1.1c-0.6,0.3-1.2,0.4-1.9,0.4
			c-0.5,0-0.9,0-1.2-0.1s-0.6-0.2-1-0.3V63h-1.7L212.6,48.6L212.6,48.6z M216.7,49.8c-0.7,0-1.3,0.2-1.7,0.5
			c-0.4,0.4-0.7,0.9-0.9,1.7v5.1c0.2,0.2,0.5,0.3,0.8,0.4c0.3,0.1,0.7,0.2,1.3,0.2c0.9,0,1.7-0.4,2.3-1.1c0.6-0.7,0.8-1.8,0.8-3.1
			c0-0.6,0-1.1-0.1-1.5c-0.1-0.5-0.3-0.9-0.5-1.2s-0.5-0.6-0.8-0.8C217.7,49.9,217.2,49.8,216.7,49.8z"/>
		<path class="st1" d="M223.2,53.8c0-1.7,0.4-3.1,1.2-4s1.9-1.4,3.4-1.4c0.8,0,1.4,0.1,2,0.4c0.6,0.3,1,0.6,1.4,1.1s0.6,1,0.8,1.7
			s0.3,1.4,0.3,2.2c0,1.7-0.4,3.1-1.2,4s-1.9,1.4-3.4,1.4c-0.8,0-1.4-0.1-2-0.4c-0.6-0.3-1-0.6-1.4-1.1s-0.6-1-0.8-1.7
			S223.2,54.6,223.2,53.8z M224.9,53.8c0,0.5,0.1,1,0.2,1.5c0.1,0.5,0.3,0.9,0.5,1.3c0.2,0.4,0.5,0.6,0.9,0.9
			c0.4,0.2,0.8,0.3,1.3,0.3c1.9,0,2.8-1.3,2.8-4c0-0.5-0.1-1-0.2-1.5c-0.1-0.5-0.3-0.9-0.5-1.3c-0.2-0.4-0.5-0.6-0.9-0.9
			c-0.4-0.2-0.8-0.3-1.3-0.3C225.8,49.8,224.9,51.1,224.9,53.8z"/>
		<path class="st1" d="M243.3,52.8l0.1-2h-0.1l-0.7,1.6l-2.5,4h-0.6l-2.6-4l-0.7-1.6h-0.1l0.2,1.9v6.2h-1.5V48.6h1.6l2.9,4.6
			l0.6,1.2l0,0l0.6-1.2l2.7-4.6h1.7v10.3h-1.6L243.3,52.8L243.3,52.8z"/>
		<path class="st1" d="M249.8,52.6c0.3-0.1,0.6-0.1,0.9-0.1c0.3,0,0.6,0,0.9,0c0.7,0,1.3,0.1,1.8,0.2c0.5,0.2,0.9,0.4,1.1,0.7
			c0.3,0.3,0.5,0.6,0.6,1s0.2,0.8,0.2,1.2c0,1.3-0.3,2.2-1,2.7c-0.7,0.6-1.8,0.8-3.4,0.8c-0.9,0-1.8,0-2.7-0.1V48.6h1.7v4H249.8z
			 M249.8,57.5c0.5,0.1,1,0.1,1.5,0.1c0.9,0,1.5-0.2,1.8-0.5s0.5-0.8,0.5-1.4c0-0.6-0.2-1-0.5-1.4s-0.9-0.5-1.8-0.5
			c-0.2,0-0.5,0-0.8,0s-0.5,0.1-0.8,0.1v3.6H249.8z M256.9,48.6h1.7v10.3h-1.7V48.6z"/>
		<path class="st1" d="M261.7,58.9V48.6h1.7v8.9h3.5v-8.9h1.7v8.9h3.5v-8.9h1.7v10.3C273.8,58.9,261.7,58.9,261.7,58.9z"/>
		<path class="st1" d="M282.5,50.1h-3c0,0.6-0.1,1.2-0.1,1.9s-0.1,1.3-0.2,2s-0.2,1.3-0.3,1.9c-0.1,0.6-0.3,1.2-0.5,1.6
			c-0.2,0.5-0.5,0.8-0.8,1.1s-0.7,0.4-1.1,0.4c-0.3,0-0.5,0-0.7,0s-0.4-0.1-0.5-0.1l0.2-1.4c0.2,0.1,0.3,0.1,0.5,0.1
			c0.3,0,0.5-0.1,0.7-0.4c0.2-0.2,0.4-0.7,0.6-1.3c0.2-0.7,0.3-1.6,0.4-2.7c0.1-1.2,0.2-2.7,0.2-4.5h6.1V59h-1.7v-8.9H282.5z"/>
		<path class="st1" d="M294.8,58.1c-0.4,0.3-0.9,0.6-1.6,0.8c-0.6,0.2-1.3,0.3-2,0.3c-0.8,0-1.5-0.1-2-0.4c-0.6-0.3-1.1-0.6-1.4-1.1
			c-0.4-0.5-0.6-1-0.8-1.7c-0.2-0.7-0.3-1.4-0.3-2.2c0-1.8,0.4-3.1,1.2-4c0.8-0.9,1.9-1.4,3.4-1.4c0.5,0,0.9,0.1,1.4,0.2
			c0.5,0.1,0.9,0.3,1.3,0.6s0.7,0.7,0.9,1.2c0.2,0.5,0.4,1.2,0.4,2.1c0,0.5,0,1-0.1,1.5h-6.6c0,0.6,0.1,1.1,0.2,1.6s0.3,0.9,0.6,1.2
			c0.3,0.3,0.6,0.6,1,0.7c0.4,0.2,0.9,0.3,1.5,0.3c0.5,0,0.9-0.1,1.4-0.2c0.5-0.2,0.8-0.4,1.1-0.6L294.8,58.1z M291.3,49.8
			c-0.8,0-1.5,0.2-2,0.6c-0.5,0.4-0.8,1.2-0.9,2.2h5.1c0-1-0.2-1.8-0.6-2.2C292.6,50,292,49.8,291.3,49.8z"/>
		<path class="st1" d="M304.1,54.4h-4.7V59h-1.7V48.6h1.7v4.3h4.7v-4.3h1.7v10.3h-1.7V54.4z"/>
		<path class="st1" d="M315.2,54.4h-4.7V59h-1.7V48.6h1.7v4.3h4.7v-4.3h1.7v10.3h-1.7V54.4z"/>
		<path class="st1" d="M319.5,53.8c0-1.7,0.4-3.1,1.2-4c0.8-0.9,1.9-1.4,3.4-1.4c0.8,0,1.4,0.1,2,0.4c0.6,0.3,1,0.6,1.4,1.1
			s0.6,1,0.8,1.7c0.2,0.7,0.3,1.4,0.3,2.2c0,1.7-0.4,3.1-1.2,4c-0.8,0.9-1.9,1.4-3.4,1.4c-0.8,0-1.4-0.1-2-0.4
			c-0.6-0.3-1-0.6-1.4-1.1s-0.6-1-0.8-1.7S319.5,54.6,319.5,53.8z M321.2,53.8c0,0.5,0.1,1,0.2,1.5s0.3,0.9,0.5,1.3
			c0.2,0.4,0.5,0.6,0.9,0.9c0.4,0.2,0.8,0.3,1.3,0.3c1.9,0,2.8-1.3,2.8-4c0-0.5-0.1-1-0.2-1.5s-0.3-0.9-0.5-1.3
			c-0.2-0.4-0.5-0.6-0.9-0.9c-0.4-0.2-0.8-0.3-1.3-0.3C322.1,49.8,321.2,51.1,321.2,53.8z"/>
		<path class="st1" d="M337.2,50.1h-4.4V59h-1.7V48.6h6v1.5H337.2z"/>
		<path class="st1" d="M337.8,53.8c0-1.7,0.4-3.1,1.2-4c0.8-0.9,1.9-1.4,3.4-1.4c0.8,0,1.4,0.1,2,0.4c0.6,0.3,1,0.6,1.4,1.1
			s0.6,1,0.8,1.7c0.2,0.7,0.3,1.4,0.3,2.2c0,1.7-0.4,3.1-1.2,4c-0.8,0.9-1.9,1.4-3.4,1.4c-0.8,0-1.4-0.1-2-0.4
			c-0.6-0.3-1-0.6-1.4-1.1s-0.6-1-0.8-1.7S337.8,54.6,337.8,53.8z M339.6,53.8c0,0.5,0.1,1,0.2,1.5s0.3,0.9,0.5,1.3s0.5,0.6,0.9,0.9
			c0.4,0.2,0.8,0.3,1.3,0.3c1.9,0,2.8-1.3,2.8-4c0-0.5-0.1-1-0.2-1.5s-0.3-0.9-0.5-1.3c-0.2-0.4-0.5-0.6-0.9-0.9
			c-0.4-0.2-0.8-0.3-1.3-0.3C340.5,49.8,339.6,51.1,339.6,53.8z"/>
		<path class="st1" d="M125.5,73.4l0.1-2h-0.1l-0.7,1.6l-2.5,4h-0.6l-2.6-4l-0.7-1.6h-0.1l0.2,1.9v6.2H117V69.3h1.6l2.9,4.6l0.6,1.2
			l0,0l0.6-1.2l2.7-4.6h1.7v10.3h-1.6C125.5,79.6,125.5,73.4,125.5,73.4z"/>
		<path class="st1" d="M137.8,78.7c-0.4,0.3-0.9,0.6-1.6,0.8c-0.6,0.2-1.3,0.3-2,0.3c-0.8,0-1.5-0.1-2-0.4c-0.6-0.3-1.1-0.6-1.4-1.1
			c-0.4-0.5-0.6-1-0.8-1.7s-0.3-1.4-0.3-2.2c0-1.8,0.4-3.1,1.2-4s1.9-1.4,3.4-1.4c0.5,0,0.9,0.1,1.4,0.2s0.9,0.3,1.3,0.6
			c0.4,0.3,0.7,0.7,0.9,1.2s0.4,1.2,0.4,2.1c0,0.5,0,1-0.1,1.5h-6.6c0,0.6,0.1,1.1,0.2,1.6c0.1,0.5,0.3,0.9,0.6,1.2
			c0.3,0.3,0.6,0.6,1,0.7c0.4,0.2,0.9,0.3,1.5,0.3c0.5,0,0.9-0.1,1.4-0.2c0.5-0.2,0.8-0.4,1.1-0.6L137.8,78.7z M134.3,70.5
			c-0.8,0-1.5,0.2-2,0.6s-0.8,1.2-0.9,2.2h5.1c0-1-0.2-1.8-0.6-2.2C135.5,70.7,135,70.5,134.3,70.5z"/>
		<path class="st1" d="M147.1,75h-4.7v4.6h-1.7V69.3h1.7v4.3h4.7v-4.3h1.7v10.3h-1.7V75z"/>
		<path class="st1" d="M159.4,78.7c-0.4,0.3-0.9,0.6-1.6,0.8c-0.6,0.2-1.3,0.3-2,0.3c-0.8,0-1.5-0.1-2-0.4c-0.6-0.3-1.1-0.6-1.4-1.1
			c-0.4-0.5-0.6-1-0.8-1.7s-0.3-1.4-0.3-2.2c0-1.8,0.4-3.1,1.2-4s1.9-1.4,3.4-1.4c0.5,0,0.9,0.1,1.4,0.2s0.9,0.3,1.3,0.6
			c0.4,0.3,0.7,0.7,0.9,1.2s0.4,1.2,0.4,2.1c0,0.5,0,1-0.1,1.5H153c0,0.6,0.1,1.1,0.2,1.6c0.1,0.5,0.3,0.9,0.6,1.2
			c0.3,0.3,0.6,0.6,1,0.7c0.4,0.2,0.9,0.3,1.5,0.3c0.5,0,0.9-0.1,1.4-0.2c0.5-0.2,0.8-0.4,1.1-0.6L159.4,78.7z M155.9,70.5
			c-0.8,0-1.5,0.2-2,0.6s-0.8,1.2-0.9,2.2h5.1c0-1-0.2-1.8-0.6-2.2C157.2,70.7,156.6,70.5,155.9,70.5z"/>
		<path class="st1" d="M171.1,82.2H170l-0.3-2.6h-7.8l-0.3,2.6h-1.1v-4.1h1.2c0.1-0.2,0.3-0.4,0.4-0.8c0.2-0.4,0.4-0.9,0.5-1.7
			c0.2-0.7,0.3-1.6,0.5-2.6c0.1-1.1,0.2-2.3,0.2-3.8h6.2v8.9h1.5v4.1H171.1z M167.9,78.1v-7.4h-3.1c0,0.6-0.1,1.2-0.1,1.9
			c-0.1,0.7-0.2,1.4-0.3,2c-0.1,0.7-0.3,1.3-0.4,1.9c-0.2,0.6-0.4,1.1-0.6,1.6H167.9z"/>
		<path class="st1" d="M176.5,75l-3,4.6h-1.9l3.3-4.7l0.7-0.6l-1.1-0.8l-2.7-4.2h1.8l2.8,4.5h1.1v-4.5h1.6V74l1-0.3l2.9-4.4h1.7
			l-2.8,4.2l-0.8,0.7l1.1,0.8l3.1,4.6h-2l-3-4.6H179v4.6h-1.6v-4.8L176.5,75z"/>
		<path class="st1" d="M195.2,73.4l0.1-2h-0.1l-0.7,1.6l-2.5,4h-0.6l-2.6-4l-0.7-1.6H188l0.2,1.9v6.2h-1.5V69.3h1.6l2.9,4.6l0.6,1.2
			l0,0l0.6-1.2l2.7-4.6h1.7v10.3h-1.6L195.2,73.4L195.2,73.4z"/>
		<path class="st1" d="M207.5,78.7c-0.4,0.3-0.9,0.6-1.6,0.8c-0.6,0.2-1.3,0.3-2,0.3c-0.8,0-1.5-0.1-2-0.4c-0.6-0.3-1.1-0.6-1.4-1.1
			c-0.4-0.5-0.6-1-0.8-1.7s-0.3-1.4-0.3-2.2c0-1.8,0.4-3.1,1.2-4s1.9-1.4,3.4-1.4c0.5,0,0.9,0.1,1.4,0.2s0.9,0.3,1.3,0.6
			c0.4,0.3,0.7,0.7,0.9,1.2s0.4,1.2,0.4,2.1c0,0.5,0,1-0.1,1.5h-6.6c0,0.6,0.1,1.1,0.2,1.6c0.1,0.5,0.3,0.9,0.6,1.2
			c0.3,0.3,0.6,0.6,1,0.7c0.4,0.2,0.9,0.3,1.5,0.3c0.5,0,0.9-0.1,1.4-0.2c0.5-0.2,0.8-0.4,1.1-0.6L207.5,78.7z M204,70.5
			c-0.8,0-1.5,0.2-2,0.6s-0.8,1.2-0.9,2.2h5.1c0-1-0.2-1.8-0.6-2.2C205.3,70.7,204.7,70.5,204,70.5z"/>
		<path class="st1" d="M216.8,75h-4.7v4.6h-1.7V69.3h1.7v4.3h4.7v-4.3h1.7v10.3h-1.7V75z"/>
		<path class="st1" d="M228.2,70.7H225v8.9h-1.7v-8.9h-3.2v-1.4h8.1L228.2,70.7L228.2,70.7z"/>
		<path class="st1" d="M229.7,70c0.5-0.3,1.1-0.5,1.8-0.7s1.4-0.2,2.2-0.2c0.7,0,1.3,0.1,1.7,0.3c0.4,0.2,0.8,0.4,1,0.8
			c0.2,0.3,0.4,0.7,0.5,1c0.1,0.4,0.1,0.7,0.1,1.1c0,0.8,0,1.6-0.1,2.4c0,0.8-0.1,1.5-0.1,2.2c0,0.5,0,1,0.1,1.4
			c0,0.5,0.1,0.9,0.2,1.3h-1.2l-0.4-1.4h-0.1c-0.1,0.2-0.3,0.4-0.5,0.6s-0.4,0.4-0.7,0.5s-0.6,0.3-0.9,0.4c-0.3,0.1-0.7,0.1-1.2,0.1
			c-0.4,0-0.8-0.1-1.2-0.2s-0.7-0.3-1-0.6c-0.3-0.3-0.5-0.6-0.6-0.9c-0.2-0.4-0.2-0.8-0.2-1.2c0-0.6,0.1-1.1,0.4-1.5
			c0.2-0.4,0.6-0.7,1-1c0.4-0.2,1-0.4,1.6-0.5s1.3-0.2,2.1-0.2c0.2,0,0.4,0,0.6,0c0.2,0,0.4,0,0.6,0c0-0.4,0.1-0.8,0.1-1.1
			c0-0.8-0.2-1.3-0.5-1.6c-0.3-0.3-0.9-0.5-1.7-0.5c-0.2,0-0.5,0-0.8,0.1c-0.3,0-0.5,0.1-0.8,0.1c-0.3,0.1-0.5,0.1-0.8,0.2
			s-0.5,0.2-0.7,0.3L229.7,70z M232.6,78.3c0.4,0,0.7-0.1,1-0.2s0.6-0.2,0.8-0.4c0.2-0.2,0.4-0.3,0.5-0.5s0.3-0.4,0.3-0.6v-1.7
			c-0.2,0-0.4,0-0.6,0c-0.2,0-0.4,0-0.6,0c-0.4,0-0.8,0-1.2,0.1c-0.4,0-0.8,0.1-1.1,0.3c-0.3,0.1-0.6,0.3-0.7,0.5
			c-0.2,0.2-0.3,0.5-0.3,0.9c0,0.5,0.2,0.9,0.5,1.2C231.6,78.1,232.1,78.3,232.6,78.3z"/>
		<path class="st1" d="M239.5,78.7c0-0.3,0.1-0.6,0.3-0.8c0.2-0.2,0.5-0.3,0.8-0.3c0.4,0,0.8,0.2,1,0.5c0.3,0.3,0.4,0.7,0.4,1.3
			c0,0.5-0.1,0.9-0.2,1.3c-0.1,0.4-0.3,0.7-0.5,1s-0.5,0.5-0.7,0.7c-0.3,0.2-0.5,0.3-0.8,0.4l-0.5-0.8c0.5-0.2,0.9-0.5,1.1-0.9
			c0.2-0.4,0.4-0.8,0.4-1.2c-0.1,0-0.2,0.1-0.4,0.1c-0.3,0-0.5-0.1-0.7-0.3C239.6,79.3,239.5,79,239.5,78.7z"/>
		<path class="st1" d="M249.5,73.7h4.4c-0.1-1-0.4-1.8-0.9-2.4s-1.2-0.9-2.1-0.9c-0.6,0-1.1,0.1-1.5,0.2c-0.4,0.2-0.8,0.3-1,0.5
			l-0.6-1.3c0.4-0.3,0.9-0.5,1.5-0.7s1.2-0.2,1.9-0.2c1.5,0,2.6,0.5,3.3,1.4s1.1,2.3,1.1,4c0,1.8-0.4,3.1-1.2,4s-1.9,1.4-3.4,1.4
			c-0.6,0-1.2-0.1-1.8-0.2c-0.5-0.1-1-0.3-1.4-0.5l0.5-1.4c0.3,0.2,0.7,0.3,1.2,0.4s0.9,0.2,1.3,0.2c1.9,0,2.9-1.1,3.1-3.3h-4.4
			L249.5,73.7L249.5,73.7z"/>
		<path class="st1" d="M260.8,74.9h-0.9v4.6h-1.7V69.3h1.7V74l0.9-0.3l3.3-4.4h1.8l-3.2,4.1l-0.9,0.7l1.1,0.8l3.4,4.7h-2L260.8,74.9
			z"/>
		<path class="st1" d="M267.3,74.4c0-1.7,0.4-3.1,1.2-4c0.8-0.9,1.9-1.4,3.4-1.4c0.8,0,1.4,0.1,2,0.4s1,0.6,1.4,1.1s0.6,1,0.8,1.7
			c0.2,0.7,0.3,1.4,0.3,2.2c0,1.7-0.4,3.1-1.2,4c-0.8,0.9-1.9,1.4-3.4,1.4c-0.8,0-1.4-0.1-2-0.4s-1-0.6-1.4-1.1s-0.6-1-0.8-1.7
			C267.4,76,267.3,75.2,267.3,74.4z M269,74.4c0,0.5,0.1,1,0.2,1.5s0.3,0.9,0.5,1.3s0.5,0.6,0.9,0.9c0.4,0.2,0.8,0.3,1.3,0.3
			c1.9,0,2.8-1.3,2.8-4c0-0.5-0.1-1-0.2-1.5s-0.3-0.9-0.5-1.3s-0.5-0.6-0.9-0.9c-0.4-0.2-0.8-0.3-1.3-0.3
			C269.9,70.4,269,71.8,269,74.4z"/>
		<path class="st1" d="M285.2,75h-4.7v4.6h-1.7V69.3h1.7v4.3h4.7v-4.3h1.7v10.3h-1.7V75z"/>
		<path class="st1" d="M289.5,74.4c0-1.7,0.4-3.1,1.2-4c0.8-0.9,1.9-1.4,3.4-1.4c0.8,0,1.4,0.1,2,0.4s1,0.6,1.4,1.1s0.6,1,0.8,1.7
			c0.2,0.7,0.3,1.4,0.3,2.2c0,1.7-0.4,3.1-1.2,4c-0.8,0.9-1.9,1.4-3.4,1.4c-0.8,0-1.4-0.1-2-0.4s-1-0.6-1.4-1.1s-0.6-1-0.8-1.7
			C289.6,76,289.5,75.2,289.5,74.4z M291.2,74.4c0,0.5,0.1,1,0.2,1.5s0.3,0.9,0.5,1.3s0.5,0.6,0.9,0.9c0.4,0.2,0.8,0.3,1.3,0.3
			c1.9,0,2.8-1.3,2.8-4c0-0.5-0.1-1-0.2-1.5s-0.3-0.9-0.5-1.3s-0.5-0.6-0.9-0.9c-0.4-0.2-0.8-0.3-1.3-0.3
			C292.1,70.4,291.2,71.8,291.2,74.4z"/>
		<path class="st1" d="M309.7,73.4l0.1-2h-0.1L309,73l-2.5,4h-0.6l-2.6-4l-0.7-1.6h-0.1l0.2,1.9v6.2h-1.5V69.3h1.6l2.9,4.6l0.6,1.2
			l0,0l0.6-1.2l2.7-4.6h1.7v10.3h-1.6V73.4z"/>
		<path class="st1" d="M320.9,73.5l0.1-1.3h-0.1l-0.8,1.3l-4.6,6.1h-0.9V69.3h1.7v6.3l-0.1,1.2h0.1l0.8-1.3l4.6-6.2h1v10.3H321v-6.1
			H320.9z"/>
		<path class="st1" d="M328.3,74.9h-0.9v4.6h-1.7V69.3h1.7V74l0.9-0.3l3.3-4.4h1.8l-3.2,4.1l-0.9,0.7l1.1,0.8l3.4,4.7h-2L328.3,74.9
			z"/>
		<path class="st1" d="M342,73.5l0.1-1.3H342l-0.8,1.3l-4.6,6.1h-0.9V69.3h1.7v6.3l-0.1,1.2h0.1l0.8-1.3l4.6-6.2h1v10.3H342V73.5z"
			/>
		<path class="st1" d="M123.2,94.1l0.1-1.3h-0.1l-0.8,1.3l-4.6,6.1h-0.9V89.9h1.7v6.3l-0.1,1.2h0.1l0.8-1.3l4.6-6.2h1v10.3h-1.7
			L123.2,94.1L123.2,94.1z"/>
		<path class="st1" d="M139.6,91.3h-3.2v8.9h-1.7v-8.9h-3.2v-1.4h8.1L139.6,91.3L139.6,91.3z"/>
		<path class="st1" d="M140.3,95.1c0-1.7,0.4-3.1,1.2-4s1.9-1.4,3.4-1.4c0.8,0,1.4,0.1,2,0.4s1,0.6,1.4,1.1s0.6,1,0.8,1.7
			s0.3,1.4,0.3,2.2c0,1.7-0.4,3.1-1.2,4s-1.9,1.4-3.4,1.4c-0.8,0-1.4-0.1-2-0.4s-1-0.6-1.4-1.1s-0.6-1-0.8-1.7
			C140.4,96.6,140.3,95.9,140.3,95.1z M142.1,95.1c0,0.5,0.1,1,0.2,1.5c0.1,0.5,0.3,0.9,0.5,1.3s0.5,0.6,0.9,0.9
			c0.4,0.2,0.8,0.3,1.3,0.3c1.9,0,2.8-1.3,2.8-4c0-0.5-0.1-1-0.2-1.5c-0.1-0.5-0.3-0.9-0.5-1.3s-0.5-0.6-0.9-0.9
			c-0.4-0.2-0.8-0.3-1.3-0.3C143,91.1,142.1,92.4,142.1,95.1z"/>
		<path class="st1" d="M152,89.9h1.1l0.3,1.2h0.1c0.3-0.5,0.7-0.8,1.2-1.1c0.5-0.3,1.1-0.4,1.7-0.4c1.4,0,2.4,0.4,3.1,1.2
			c0.7,0.8,1,2.1,1,4c0,0.9-0.1,1.6-0.3,2.3c-0.2,0.7-0.5,1.3-1,1.8c-0.4,0.5-0.9,0.9-1.5,1.1c-0.6,0.3-1.2,0.4-1.9,0.4
			c-0.5,0-0.9,0-1.2-0.1s-0.6-0.2-1-0.3v4.3H152V89.9z M156.2,91.1c-0.7,0-1.3,0.2-1.7,0.5c-0.4,0.4-0.7,0.9-0.9,1.7v5.1
			c0.2,0.2,0.5,0.3,0.8,0.4s0.7,0.2,1.3,0.2c0.9,0,1.7-0.4,2.3-1.1s0.8-1.8,0.8-3.1c0-0.6,0-1.1-0.1-1.5c-0.1-0.5-0.3-0.9-0.5-1.2
			c-0.2-0.3-0.5-0.6-0.8-0.8C157.1,91.2,156.7,91.1,156.2,91.1z"/>
		<path class="st1" d="M169.2,91.3h-4.4v8.9h-1.7V89.9h6L169.2,91.3L169.2,91.3z"/>
		<path class="st1" d="M169.9,95.1c0-1.7,0.4-3.1,1.2-4s1.9-1.4,3.4-1.4c0.8,0,1.4,0.1,2,0.4s1,0.6,1.4,1.1s0.6,1,0.8,1.7
			s0.3,1.4,0.3,2.2c0,1.7-0.4,3.1-1.2,4s-1.9,1.4-3.4,1.4c-0.8,0-1.4-0.1-2-0.4s-1-0.6-1.4-1.1s-0.6-1-0.8-1.7
			S169.9,95.9,169.9,95.1z M171.6,95.1c0,0.5,0.1,1,0.2,1.5c0.1,0.5,0.3,0.9,0.5,1.3s0.5,0.6,0.9,0.9c0.4,0.2,0.8,0.3,1.3,0.3
			c1.9,0,2.8-1.3,2.8-4c0-0.5-0.1-1-0.2-1.5c-0.1-0.5-0.3-0.9-0.5-1.3s-0.5-0.6-0.9-0.9c-0.4-0.2-0.8-0.3-1.3-0.3
			C172.5,91.1,171.6,92.4,171.6,95.1z"/>
		<path class="st1" d="M181.5,89.9c0.5,0,1-0.1,1.5-0.1s1.2-0.1,2-0.1c1.4,0,2.3,0.2,2.9,0.6c0.6,0.4,0.9,1.1,0.9,1.9
			c0,0.5-0.1,1-0.4,1.4c-0.3,0.5-0.7,0.8-1.4,1v0.1c0.8,0.2,1.4,0.4,1.7,0.8s0.5,1,0.5,1.7c0,1.1-0.4,1.9-1.2,2.3
			c-0.8,0.5-1.9,0.7-3.5,0.7c-0.6,0-1.1,0-1.6-0.1c-0.5,0-1-0.1-1.5-0.1V89.9H181.5z M185.2,94.2c0.2,0,0.5,0,0.7-0.1
			s0.4-0.2,0.6-0.3c0.2-0.1,0.3-0.3,0.5-0.5c0.1-0.2,0.2-0.4,0.2-0.6c0-0.6-0.2-0.9-0.5-1.1s-0.9-0.3-1.7-0.3c-0.4,0-0.8,0-1,0
			c-0.3,0-0.5,0-0.7,0v3L185.2,94.2L185.2,94.2z M183.2,98.8c0.3,0,0.5,0,0.8,0.1c0.3,0,0.6,0,0.9,0c0.9,0,1.6-0.1,2.1-0.4
			c0.4-0.3,0.7-0.7,0.7-1.3c0-0.5-0.2-0.9-0.6-1.2c-0.4-0.3-1-0.5-2-0.5h-1.8L183.2,98.8L183.2,98.8z"/>
		<path class="st1" d="M197.3,91.3h-3c0,0.6-0.1,1.2-0.1,1.9c0,0.7-0.1,1.3-0.2,2c-0.1,0.7-0.2,1.3-0.3,1.9s-0.3,1.2-0.5,1.6
			s-0.5,0.8-0.8,1.1c-0.3,0.3-0.7,0.4-1.1,0.4c-0.3,0-0.5,0-0.7,0s-0.4-0.1-0.5-0.1l0.2-1.4c0.2,0.1,0.3,0.1,0.5,0.1
			c0.3,0,0.5-0.1,0.7-0.4c0.2-0.2,0.4-0.7,0.6-1.3c0.2-0.7,0.3-1.6,0.4-2.7c0.1-1.2,0.2-2.7,0.2-4.5h6.1v10.3h-1.7v-8.9H197.3z"/>
		<path class="st1" d="M208.6,94.1l0.1-1.3h-0.1l-0.8,1.3l-4.6,6.1h-0.9V89.9h1.7v6.3l-0.1,1.2h0.1l0.8-1.3l4.6-6.2h1v10.3h-1.7
			v-6.1H208.6z"/>
	</g>
</g>
<g id="small">
	<g>
		<path class="st1" d="M153,45.4l0.8-8.8h-0.5l-4.5,9.1l-25.2,37.2h-10V15.2h13.2V52l-1,9.1h0.6l4.7-9.4l25.2-36.5h9.9v67.7H153
			V45.4z"/>
		<path class="st1" d="M214.9,27h-23.7v55.9H178V15.2h50.2v67.7H215V27H214.9z"/>
		<path class="st1" d="M292.2,47.8l1.5-13.4h-0.6l-4.2,10.8l-14.4,25.2h-4.3L255,45.1l-4.3-10.7h-0.5l1.9,13.3v35.2h-12.6V15.2h12.1
			l18.1,30.9l3.2,7.7h0.4l2.9-7.9l17.1-30.7h12v67.7h-13.2V47.8H292.2z"/>
		<path class="st1" d="M323.8,43.2h26c-0.2-2.6-0.7-4.9-1.6-7.1c-0.9-2.2-2-4-3.5-5.6c-1.5-1.5-3.3-2.8-5.5-3.6
			c-2.2-0.9-4.7-1.3-7.4-1.3c-3.5,0-6.5,0.4-9.1,1.1s-4.7,1.6-6.3,2.5L313.5,18c2.3-1.2,5.1-2.1,8.5-2.9c3.4-0.8,6.8-1.2,10.1-1.2
			c4.4,0,8.6,0.6,12.3,1.8c3.8,1.2,7,3.2,9.8,6s4.9,6.4,6.4,10.9s2.3,9.9,2.3,16.4c0,6.7-0.9,12.3-2.7,16.8
			c-1.8,4.5-4.2,8.1-7.3,10.8c-3,2.7-6.5,4.6-10.4,5.8c-3.9,1.2-8,1.7-12.3,1.7c-3.7,0-7-0.3-10-1c-3-0.6-5.4-1.4-7.2-2.2l3.5-11.5
			c1.5,0.7,3.5,1.4,6,2s5.4,0.9,8.7,0.9c2.5,0,4.8-0.4,7-1.1c2.1-0.7,4-1.8,5.7-3.3c1.6-1.5,3-3.4,4-5.8c1-2.3,1.7-5.1,1.9-8.4
			h-26.1V43.2H323.8z"/>
		<path class="st1" d="M401.3,60.8l0.5-6.9h-0.3l-4.2,7.1l-17.2,21.8h-7.9V34.5h12.6v23l-0.6,6.6h0.4l4-6.9L406,34.5h7.9v48.3h-12.6
			L401.3,60.8L401.3,60.8z"/>
		<path class="st1" d="M473.2,27h-19.7v55.9h-13.2V27h-19.8V15.2h52.8L473.2,27L473.2,27z"/>
	</g>
</g>
</svg>
